<svg width="200" height="200" viewBox="0 0 200 200" fill="none" xmlns="http://www.w3.org/2000/svg">
<path d="M100 199.167C45.2302 199.167 0.833313 154.77 0.833313 100C0.833313 45.2303 45.2302 0.833344 100 0.833344C154.77 0.833344 199.167 45.2303 199.167 100C199.167 154.77 154.77 199.167 100 199.167ZM100 179.333C121.04 179.333 141.219 170.975 156.097 156.097C170.975 141.219 179.333 121.041 179.333 100C179.333 78.9595 170.975 58.7808 156.097 43.9029C141.219 29.025 121.04 20.6667 100 20.6667C78.9595 20.6667 58.7807 29.025 43.9028 43.9029C29.025 58.7808 20.6666 78.9595 20.6666 100C20.6666 121.041 29.025 141.219 43.9028 156.097C58.7807 170.975 78.9595 179.333 100 179.333V179.333ZM90.1131 139.667L48.0367 97.5903L62.0588 83.5681L90.1131 111.622L146.202 55.5238L160.234 69.5459L90.1131 139.667Z" fill="#FF0000"/>
</svg>
